<?xml version="1.0" standalone="no"?>
<!DOCTYPE svg PUBLIC "-//W3C//DTD SVG 20010904//EN"
 "http://www.w3.org/TR/2001/REC-SVG-20010904/DTD/svg10.dtd">
<svg version="1.0" xmlns="http://www.w3.org/2000/svg"
 width="123.000000pt" height="123.000000pt" viewBox="0 0 123.000000 123.000000"
 preserveAspectRatio="xMidYMid meet">
<metadata>
Created by potrace 1.14, written by Peter Selinger 2001-2017
</metadata>
<g transform="translate(0.000000,123.000000) scale(0.100000,-0.100000)"
fill="#000000" stroke="none">
<path d="M468 1073 c-13 -16 -303 -506 -338 -572 -12 -23 -4 -32 166 -202 98
-99 185 -179 194 -179 8 0 40 26 72 57 l58 57 58 -57 c32 -31 64 -57 72 -57 9
0 96 81 194 179 l179 179 -172 294 c-95 161 -179 299 -186 307 -18 19 -29 9
-66 -57 -18 -31 -44 -75 -57 -96 l-24 -39 -60 102 c-32 55 -63 101 -67 101 -4
0 -15 -8 -23 -17z m76 -145 c38 -66 46 -86 38 -102 -5 -12 -51 -91 -101 -176
-50 -85 -91 -161 -91 -169 0 -9 44 -60 97 -113 l97 -98 -49 -50 -50 -50 -152
152 c-84 84 -153 157 -153 162 0 13 301 526 309 526 4 0 28 -37 55 -82z m367
-177 c82 -139 149 -258 149 -265 0 -6 -69 -80 -153 -164 l-152 -152 -50 50
-49 50 97 98 c53 53 97 103 97 111 0 10 -128 237 -193 342 -8 12 2 37 39 102
27 48 53 86 58 84 4 -1 75 -117 157 -256z m-197 -112 l88 -152 -91 -91 -91
-91 -90 91 -91 90 88 152 c48 83 90 151 93 151 3 1 45 -67 94 -150z"/>
</g>
</svg>
